<mxfile host="app.diagrams.net" modified="2024-02-27T13:29:06.356Z" agent="Mozilla/5.0 (Windows NT 10.0; Win64; x64) AppleWebKit/537.36 (KHTML, like Gecko) Chrome/122.0.0.0 Safari/537.36" etag="G1yKZGSkHhDfZXVlVpt8" version="23.1.6" type="github">
  <diagram name="Page-1" id="LIlpPFdDfvENEXWfj_1C">
    <mxGraphModel dx="1434" dy="1923" grid="1" gridSize="10" guides="1" tooltips="1" connect="1" arrows="1" fold="1" page="1" pageScale="1" pageWidth="827" pageHeight="1169" math="0" shadow="0">
      <root>
        <mxCell id="0" />
        <mxCell id="1" parent="0" />
        <mxCell id="VXe5KcjDZaze5e-VG5NV-1" value="BuildingManager" style="rounded=0;whiteSpace=wrap;html=1;" parent="1" vertex="1">
          <mxGeometry x="360" y="190" width="120" height="60" as="geometry" />
        </mxCell>
        <mxCell id="VXe5KcjDZaze5e-VG5NV-3" style="edgeStyle=orthogonalEdgeStyle;rounded=0;orthogonalLoop=1;jettySize=auto;html=1;entryX=0;entryY=0.5;entryDx=0;entryDy=0;" parent="1" source="VXe5KcjDZaze5e-VG5NV-2" target="VXe5KcjDZaze5e-VG5NV-1" edge="1">
          <mxGeometry relative="1" as="geometry" />
        </mxCell>
        <mxCell id="VXe5KcjDZaze5e-VG5NV-2" value="Building" style="rounded=0;whiteSpace=wrap;html=1;" parent="1" vertex="1">
          <mxGeometry x="250" y="290" width="120" height="60" as="geometry" />
        </mxCell>
        <mxCell id="VXe5KcjDZaze5e-VG5NV-4" value="Register" style="text;html=1;align=center;verticalAlign=middle;resizable=0;points=[];autosize=1;strokeColor=none;fillColor=none;" parent="1" vertex="1">
          <mxGeometry x="240" y="220" width="70" height="30" as="geometry" />
        </mxCell>
        <mxCell id="VXe5KcjDZaze5e-VG5NV-5" value="Buildings" style="text;html=1;align=center;verticalAlign=middle;whiteSpace=wrap;rounded=0;" parent="1" vertex="1">
          <mxGeometry x="300" y="190" width="60" height="30" as="geometry" />
        </mxCell>
        <mxCell id="VXe5KcjDZaze5e-VG5NV-6" value="" style="rounded=1;whiteSpace=wrap;html=1;fillColor=#f8cecc;strokeColor=#b85450;" parent="1" vertex="1">
          <mxGeometry x="610" y="180" width="550" height="350" as="geometry" />
        </mxCell>
        <mxCell id="VXe5KcjDZaze5e-VG5NV-7" value="Patrol" style="text;html=1;align=center;verticalAlign=middle;resizable=0;points=[];autosize=1;strokeColor=none;fillColor=none;" parent="1" vertex="1">
          <mxGeometry x="1080" y="190" width="50" height="30" as="geometry" />
        </mxCell>
        <mxCell id="UoYRtUTGC79nocU-Y7vq-10" style="edgeStyle=orthogonalEdgeStyle;rounded=0;orthogonalLoop=1;jettySize=auto;html=1;entryX=0.5;entryY=1;entryDx=0;entryDy=0;dashed=1;" edge="1" parent="1" source="VXe5KcjDZaze5e-VG5NV-8" target="UoYRtUTGC79nocU-Y7vq-9">
          <mxGeometry relative="1" as="geometry" />
        </mxCell>
        <mxCell id="VXe5KcjDZaze5e-VG5NV-8" value="&amp;lt;&amp;lt;Abstract&amp;gt;&amp;gt;&lt;br&gt;Character&lt;br&gt;&lt;br&gt;- name&lt;br&gt;- sexe&lt;br&gt;- Color&lt;br&gt;- speed&lt;br&gt;- navMeshAgent" style="rounded=0;whiteSpace=wrap;html=1;" parent="1" vertex="1">
          <mxGeometry x="1070" y="-40" width="120" height="140" as="geometry" />
        </mxCell>
        <mxCell id="VXe5KcjDZaze5e-VG5NV-11" style="edgeStyle=orthogonalEdgeStyle;rounded=0;orthogonalLoop=1;jettySize=auto;html=1;entryX=1;entryY=0.5;entryDx=0;entryDy=0;" parent="1" source="VXe5KcjDZaze5e-VG5NV-9" target="VXe5KcjDZaze5e-VG5NV-1" edge="1">
          <mxGeometry relative="1" as="geometry" />
        </mxCell>
        <mxCell id="VXe5KcjDZaze5e-VG5NV-9" value="CharacterPatrol" style="rounded=0;whiteSpace=wrap;html=1;" parent="1" vertex="1">
          <mxGeometry x="810" y="190" width="120" height="60" as="geometry" />
        </mxCell>
        <mxCell id="VXe5KcjDZaze5e-VG5NV-10" value="&lt;h1&gt;Fetch 2 Bat&lt;/h1&gt;&lt;p&gt;Point A &amp;amp; Point B&lt;/p&gt;" style="text;html=1;spacing=5;spacingTop=-20;whiteSpace=wrap;overflow=hidden;rounded=0;" parent="1" vertex="1">
          <mxGeometry x="570" y="150" width="140" height="70" as="geometry" />
        </mxCell>
        <mxCell id="VXe5KcjDZaze5e-VG5NV-12" value="" style="endArrow=classic;html=1;rounded=0;entryX=0;entryY=0.5;entryDx=0;entryDy=0;shape=flexArrow;" parent="1" source="VXe5KcjDZaze5e-VG5NV-9" target="VXe5KcjDZaze5e-VG5NV-8" edge="1">
          <mxGeometry width="50" height="50" relative="1" as="geometry">
            <mxPoint x="540" y="350" as="sourcePoint" />
            <mxPoint x="590" y="300" as="targetPoint" />
            <Array as="points">
              <mxPoint x="870" y="30" />
            </Array>
          </mxGeometry>
        </mxCell>
        <mxCell id="VXe5KcjDZaze5e-VG5NV-19" style="edgeStyle=orthogonalEdgeStyle;rounded=0;orthogonalLoop=1;jettySize=auto;html=1;" parent="1" source="VXe5KcjDZaze5e-VG5NV-13" target="VXe5KcjDZaze5e-VG5NV-10" edge="1">
          <mxGeometry relative="1" as="geometry" />
        </mxCell>
        <mxCell id="VXe5KcjDZaze5e-VG5NV-13" value="PatrolManager" style="rounded=0;whiteSpace=wrap;html=1;" parent="1" vertex="1">
          <mxGeometry x="580" y="40" width="120" height="60" as="geometry" />
        </mxCell>
        <mxCell id="VXe5KcjDZaze5e-VG5NV-16" value="Trigger" style="text;html=1;align=center;verticalAlign=middle;resizable=0;points=[];autosize=1;strokeColor=none;fillColor=none;" parent="1" vertex="1">
          <mxGeometry x="570" y="110" width="60" height="30" as="geometry" />
        </mxCell>
        <mxCell id="UoYRtUTGC79nocU-Y7vq-1" value="" style="rounded=1;whiteSpace=wrap;html=1;fillColor=#d5e8d4;strokeColor=#82b366;" vertex="1" parent="1">
          <mxGeometry x="1180" y="180" width="550" height="350" as="geometry" />
        </mxCell>
        <mxCell id="UoYRtUTGC79nocU-Y7vq-4" value="Enemies" style="text;html=1;align=center;verticalAlign=middle;resizable=0;points=[];autosize=1;strokeColor=none;fillColor=none;" vertex="1" parent="1">
          <mxGeometry x="1644" y="190" width="70" height="30" as="geometry" />
        </mxCell>
        <mxCell id="UoYRtUTGC79nocU-Y7vq-6" value="Enemy" style="rounded=0;whiteSpace=wrap;html=1;" vertex="1" parent="1">
          <mxGeometry x="1390" y="190" width="120" height="60" as="geometry" />
        </mxCell>
        <mxCell id="UoYRtUTGC79nocU-Y7vq-7" value="" style="endArrow=classic;html=1;rounded=0;entryX=1;entryY=0.5;entryDx=0;entryDy=0;shape=flexArrow;exitX=0.5;exitY=0;exitDx=0;exitDy=0;" edge="1" parent="1" source="UoYRtUTGC79nocU-Y7vq-6" target="VXe5KcjDZaze5e-VG5NV-8">
          <mxGeometry width="50" height="50" relative="1" as="geometry">
            <mxPoint x="880" y="200" as="sourcePoint" />
            <mxPoint x="1080" y="40" as="targetPoint" />
            <Array as="points">
              <mxPoint x="1450" y="30" />
            </Array>
          </mxGeometry>
        </mxCell>
        <mxCell id="UoYRtUTGC79nocU-Y7vq-9" value="IInteractable" style="ellipse;whiteSpace=wrap;html=1;" vertex="1" parent="1">
          <mxGeometry x="1070" y="-200" width="120" height="80" as="geometry" />
        </mxCell>
        <mxCell id="UoYRtUTGC79nocU-Y7vq-14" style="edgeStyle=orthogonalEdgeStyle;rounded=0;orthogonalLoop=1;jettySize=auto;html=1;entryX=0;entryY=0.5;entryDx=0;entryDy=0;" edge="1" parent="1" source="UoYRtUTGC79nocU-Y7vq-11" target="UoYRtUTGC79nocU-Y7vq-6">
          <mxGeometry relative="1" as="geometry">
            <Array as="points">
              <mxPoint x="1301" y="220" />
            </Array>
          </mxGeometry>
        </mxCell>
        <mxCell id="UoYRtUTGC79nocU-Y7vq-11" value="Heretic" style="rounded=0;whiteSpace=wrap;html=1;" vertex="1" parent="1">
          <mxGeometry x="1241" y="320" width="120" height="60" as="geometry" />
        </mxCell>
        <mxCell id="UoYRtUTGC79nocU-Y7vq-15" style="edgeStyle=orthogonalEdgeStyle;rounded=0;orthogonalLoop=1;jettySize=auto;html=1;" edge="1" parent="1" source="UoYRtUTGC79nocU-Y7vq-12" target="UoYRtUTGC79nocU-Y7vq-6">
          <mxGeometry relative="1" as="geometry" />
        </mxCell>
        <mxCell id="UoYRtUTGC79nocU-Y7vq-12" value="Soldier" style="rounded=0;whiteSpace=wrap;html=1;" vertex="1" parent="1">
          <mxGeometry x="1390" y="320" width="120" height="60" as="geometry" />
        </mxCell>
        <mxCell id="UoYRtUTGC79nocU-Y7vq-16" style="edgeStyle=orthogonalEdgeStyle;rounded=0;orthogonalLoop=1;jettySize=auto;html=1;entryX=1;entryY=0.5;entryDx=0;entryDy=0;" edge="1" parent="1" source="UoYRtUTGC79nocU-Y7vq-13" target="UoYRtUTGC79nocU-Y7vq-6">
          <mxGeometry relative="1" as="geometry">
            <Array as="points">
              <mxPoint x="1610" y="220" />
            </Array>
          </mxGeometry>
        </mxCell>
        <mxCell id="UoYRtUTGC79nocU-Y7vq-13" value="Dinosaurus" style="rounded=0;whiteSpace=wrap;html=1;" vertex="1" parent="1">
          <mxGeometry x="1550" y="320" width="120" height="60" as="geometry" />
        </mxCell>
        <mxCell id="UoYRtUTGC79nocU-Y7vq-22" value="Player" style="rounded=0;whiteSpace=wrap;html=1;" vertex="1" parent="1">
          <mxGeometry x="1400" y="-260" width="120" height="60" as="geometry" />
        </mxCell>
      </root>
    </mxGraphModel>
  </diagram>
</mxfile>
